<mxfile modified="2022-01-13T06:16:54.707Z" host="app.diagrams.net" agent="5.0 (Windows NT 10.0; Win64; x64) AppleWebKit/537.36 (KHTML, like Gecko) Chrome/97.0.4692.71 Safari/537.36" etag="C7wrm73KMS0De4H8ObVZ" version="16.2.4" type="github">
  <diagram id="Ht1M8jgEwFfnCIfOTk4-" name="Page-1">
    <mxGraphModel dx="1209" dy="578" grid="0" gridSize="10" guides="1" tooltips="1" connect="1" arrows="1" fold="1" page="1" pageScale="1" pageWidth="1169" pageHeight="827" math="0" shadow="0">
      <root>
        <mxCell id="0" />
        <mxCell id="1" parent="0" />
        <mxCell id="MnDs8C3skfpK5YFoCa7w-4" value="" style="endArrow=none;html=1;rounded=0;strokeWidth=9;fillColor=#f8cecc;strokeColor=#b85450;" edge="1" parent="1">
          <mxGeometry width="50" height="50" relative="1" as="geometry">
            <mxPoint x="581" y="401.5" as="sourcePoint" />
            <mxPoint x="581" y="355.5" as="targetPoint" />
            <Array as="points">
              <mxPoint x="621" y="379.5" />
            </Array>
          </mxGeometry>
        </mxCell>
        <mxCell id="MnDs8C3skfpK5YFoCa7w-7" value="" style="endArrow=none;html=1;rounded=0;strokeWidth=9;fillColor=#f8cecc;strokeColor=#b85450;" edge="1" parent="1">
          <mxGeometry width="50" height="50" relative="1" as="geometry">
            <mxPoint x="523" y="402" as="sourcePoint" />
            <mxPoint x="523" y="356" as="targetPoint" />
            <Array as="points">
              <mxPoint x="563" y="380" />
            </Array>
          </mxGeometry>
        </mxCell>
        <mxCell id="MnDs8C3skfpK5YFoCa7w-8" value="" style="endArrow=none;html=1;rounded=0;strokeWidth=9;fontStyle=1;fillColor=#f8cecc;strokeColor=#b85450;" edge="1" parent="1">
          <mxGeometry width="50" height="50" relative="1" as="geometry">
            <mxPoint x="551" y="402" as="sourcePoint" />
            <mxPoint x="551" y="356" as="targetPoint" />
            <Array as="points">
              <mxPoint x="591" y="380" />
            </Array>
          </mxGeometry>
        </mxCell>
        <mxCell id="MnDs8C3skfpK5YFoCa7w-13" value="Cloud" style="html=1;verticalLabelPosition=bottom;align=center;labelBackgroundColor=#ffffff;verticalAlign=top;strokeWidth=2;strokeColor=#0080F0;shadow=0;dashed=0;shape=mxgraph.ios7.icons.cloud;" vertex="1" parent="1">
          <mxGeometry x="379" y="344" width="97" height="58" as="geometry" />
        </mxCell>
        <mxCell id="MnDs8C3skfpK5YFoCa7w-16" value="" style="shape=image;verticalLabelPosition=bottom;labelBackgroundColor=default;verticalAlign=top;aspect=fixed;imageAspect=0;image=data:image/jpeg,/9j/4AAQSkZJRgABAQEAAAAAAAD/4QAuRXhpZgAATU0AKgAAAAgAAkAAAAMAAAABAAAAAEABAAEAAAABAAAAAAAAAAD/2wBDAAoHBwkHBgoJCAkLCwoMDxkQDw4ODx4WFxIZJCAmJSMgIyIoLTkwKCo2KyIjMkQyNjs9QEBAJjBGS0U+Sjk/QD3/2wBDAQsLCw8NDx0QEB09KSMpPT09PT09PT09PT09PT09PT09PT09PT09PT09PT09PT09PT09PT09PT09PT09PT09PT3/wAARCAHaAdoDASIAAhEBAxEB/8QAHwAAAQUBAQEBAQEAAAAAAAAAAAECAwQFBgcICQoL/8QAtRAAAgEDAwIEAwUFBAQAAAF9AQIDAAQRBRIhMUEGE1FhByJxFDKBkaEII0KxwRVS0fAkM2JyggkKFhcYGRolJicoKSo0NTY3ODk6Q0RFRkdISUpTVFVWV1hZWmNkZWZnaGlqc3R1dnd4eXqDhIWGh4iJipKTlJWWl5iZmqKjpKWmp6ipqrKztLW2t7i5usLDxMXGx8jJytLT1NXW19jZ2uHi4+Tl5ufo6erx8vP09fb3+Pn6/8QAHwEAAwEBAQEBAQEBAQAAAAAAAAECAwQFBgcICQoL/8QAtREAAgECBAQDBAcFBAQAAQJ3AAECAxEEBSExBhJBUQdhcRMiMoEIFEKRobHBCSMzUvAVYnLRChYkNOEl8RcYGRomJygpKjU2Nzg5OkNERUZHSElKU1RVVldYWVpjZGVmZ2hpanN0dXZ3eHl6goOEhYaHiImKkpOUlZaXmJmaoqOkpaanqKmqsrO0tba3uLm6wsPExcbHyMnK0tPU1dbX2Nna4uPk5ebn6Onq8vP09fb3+Pn6/9oADAMBAAIRAxEAPwD2WiiigA70GkYkYpv546H2oAXJpRnvSAA/hTqACiiigAooooAKKKKACiiigAooooAKTJHB/OlpDQAtAz1/SmgmnUAFFFFABRRRQAUUUUAFFFFABRRRQAUUUhOBQAv1puTSZP8Ak9aUYJoABn/69OoooAKKKKACiiigAooooAKKKKACiiigBOR7j1paDTcmgB3X6UUUUAFFFFABRRRQAUUUUAFFFFABRRRQAUhP50FsU0frQAHJ96cB60AAUtACdPp7UtFJgjp+VAC0UA5ooAKKKKACiiigAooooAKKKQnsKAAk9B1pQKAMUUAH0pAex60tBGaACikyR16etLQAUUUUAFFFFABRRRQAUUUmev1oAUnFMJJ+vpRnJpwHegBAvr+VL07cetLRQAUUmMdPypQc0AFFFFABRRRQAUUUUAFFFFABQT+dBP50AfnQAAevWiiigBM9j/8ArpaKTkfSgBaKKKACiiigAooooAKKKKACikJwaWgBOc96XFFFABRRRQAUUUUABHcdaAex60UEZoAKKTJHX86WgAooooAKKKTOeB+dABnPA/OlAxRjFFABRRQQCCD0NABRUUBIUxsfmjOPw7fpUtABScjp09KWigABzRSEdx1pQfzoAKKKKACiignFABTeffNL15P4CloATA+v1paKKACiiigAoIz9aKKAEz60tFJyPcUALRQDmigAooooAKQnsOtBPYdaUDFAABj60UUUAFFFFABRRRQAmMdPypQc0UEfnQAUUgPY9aWgAooooAKKKTr9P50AIc5P6U6iigAooooAKKKKACiiigAooooAKTkdOnpS0UAHWimliDgAZIoB3A9uccUAL14HT1pelFFABRRRQAUUUUAQy/JKkvY/K39P1/nU1I6B0KnoRio4GJQq330O0+/v+NAEtFFFABQRmiigBM46/nS0Hoabk5x6UAOJxSAdz+VLjvRQAUUUUAFFFFABRRRQAUUUUAFFFFACY7jrSg9u9FNZ9mOOpoAdSE9h1pEYnIOMj0psr+VGSBljwB6mgBylTkA5IODTqZEnloBnJ7n1NPoAKKKKACiiigAooooAKKKKAA80nI69PWlooAKKbnp+lL16/lQAdfp/OloooAKKKKACiiigAooooAKKKKACiiigApCew60E9hSgYoATAOMjJ96OF6DA9qWigAopOR0/KlyDQAUUUUAFFFFABUL/ALqdX/hf5W+vb/CpqbJGJEKnoRQA6io4XLxjd94cN9akoAKKOlJyeT+VAByfp6UYFLRQAA9uhooIzSZx16etAC0UUUAFFRwf6vPqx/nUlABRRRQAUUUUAFFFIT6daAFJ/OkwD15pQMfWigBMAdB+VRL++nLfwJwPc96dO5VML99jtX60scYjQKvYd+9AD6KAc/WigAooooAKKKKACiiigAooooAKTOenT1o6/SloAMUZxxRRQAUUnI+lLQAUUUUAFFJyOn5UvWgAooooAKKKKACkJJ4H50deB+JpelAABiiiigAooooAKCO460UUAAPY9aKCM0mcdfzoAWiiigAoooPQ0AQn93cg/wAMnB9iP/rfyqbINRyoZEK9D2PoabC3mIGxg9x6GgCXGeT+VLRRQAUUUUAFFFZWu6wmj2RkwGmf5Y1z1P8AhTjFyaS3ZE5qEXKT0RYvtStdMj33UyoD0B6n6DvWBP46gBxb2srr2ZmC1yV1dTXk7T3Ehkkbuew9vQUxY2kkVEBZ2IUKO5r1KeBgleb1PDrZnUlK1PRHW23jiNQFms5FXJ+ZXB/nXQafrFlqi/6NMGcDJQ8MPwrzEhlcowKsDgqe1OjleGRZI3KOp+VlPIp1MDBr3NGTSzOrB2nqj1uisLw1rn9q25jmwLmMfNj+If3hW7Xlzg4Ple57tOpGrFSjsFFFIT2HWpNBSew60AYoAxRmgAooqKdzgIpwznGfQdzQAkf72Yy/wj5V/qf6fhU1IihECgYAGBS0ABGaTPY0tFABRScj3FLQAUUUUAFFFNJNADsjpR1+lMwSfX1p9ABRRRQAUUUUAFJgjp+VLRQAA5ooI796KACkI7jrS0UAAP50UEZpN1AC0nXgdPWjk/SloAKKKKACiiigAooooAKKKKACiiigBOn0pc5opMjt+NAATjtSE5pM9/xpQOORQA04UEkgAevauW1LxfHbSyR6ciyknl2+6D7ev6VF4v1ljIdPt2IUDMzA9f8AZ/rXJ5A7ivRw2EjKPPP5I8bG4+UZOnS6bs1ZvE+rTEn7Vs9kUDFOt/FWqwEE3AlH92RR/SsjI9R+dGR6j867vY0rW5UeZ9YrJ35nc7zR/FdvfusFwognbp/db6HsfY10XWvIK7vwlrLX1u1rO26eEcE/xL/j2/KvOxWFUFzw2PXwOOdR+zqb9H3OjrznxRem81yVc/u4f3aj6df1/lXobzRpkM4B9O9eW6jn+07vOcmZyc/WjARTm32DNZNU0u7I4WjWdGljMiA/MgOMj61sadodxd3q3GnMGto3DpJMCM45xjue2RxWZA1mImFxFO8mTgpIAPbgivQfD7xSaHaGHG0RhSPQjr+tdOKqygrpeXkcOBoRqytJ7anH3+hy2N4ZtTYLbOxZpIQW567eehPTJ4rIlZHmdo4/LjJyq5zgfWvRPErxJoN15xGCuFH+12/WuBuGs2jAtop0kz8xkkDDH4CjC1ZTV2vLyDHUI0pcsWu+u4/SLxrDVbeYHChgrD/ZPB/x/CvUB0zXkgB4x64HNeqxTp5SBmCtgfeGP51hmEVzJnZlMnyyi9kTk9hWdq+tWmh2ZuLx9q9FUcs59AKvSzJBC8rsAiKWLE9AK8W8Qa3Lr2qyXTkiIHbCh/hT/E9a58Nh3Wl5Lc7cViFRj5vY1tV8farfMVtWFnD2CcufqT/TFYLavqMj7n1C7Ldcmdv8aq06NPMkC5Vcnq52gfU9q9qNGnTWiR4sq1Sb1bNiw8X61pzgx3rzIOqT/OD+fI/A13vhrxda665jkAgvcf6snIYf7J7+uOtcdf8AhmG10C21ETxFZuVQttxuxjL/AMQXB7DrXNxyPDMkkLskiNuVlPII71zSoUq8XyKzOiFerh2uZ3R77RWJ4W1sa7o0dw2BOvyTKOgYdfwPB/GtuvHlFxdn0PahJTipIKKKKRQUmMcj8qWigABzQTjtSEjPvSE5oAC2RSAZz6d6UDOc07pQAAYooooAKKKKACiiigAooooAKKKKACiik68D8TQAZ7Cjb0pcYooABjp6UUEfnSZ7HrQAtFFFABRRRQAUUUUAFFFFABRRkUhPpQAE4pnf/PFL196cAPxoATbjnNDsFRmPQDNOqOVN8TqO6kYoQnseU3MzXNzLO5y0jFs/Wu50XTY4tBt5YIYnnkQOxkXO4+me3pXBkFCVPBU4IPavRtIuEg8OWbtkgRKAFGST6CvVxjcYRS2PCy5KVWTlv/wSzbJaXMe5LeMEHDKyDKn0NRyJC0/kW1vCXB/eMUGEHp7n2/E0gsJ5GNy0phuH4KqMgL6e5Hr6+3FLEp00+Wctbuxw55KMT/F6gnv+B9a8277nr27rQ5TxjYwWd7A8Eax+apLBRgEg9f1rP0GbydbtSfuu+xh7Hj/Ctjx0wa6sxnnY38xWHo6GXWbNB1Myn8jn+lerS97D69meFXXLi/d7o9OVFUYVVH0GK8+8VWJs9ad8fu7gb1Pv3/Xn8a9DrO1nSotXsjC52uvzI+PumvOw1VU536Hs4zD+3pWW62PN4fK85PtG7ys/Ns649vet7w/qc51CeOzSCCF13CNs7Vxx27kdT3rFvbKfT7gwXUZRh0PZvcHuKhjkeJw8bsjjoynBFevUhGrHTW6+R89TqSoTV1az1Oh17U5v7RhjvVgnhRctGmcHPGee+Ohrn5vL85xAWMefl39ce/vSSSPK5Z2Z3bqzHNOtraW6mWG3jaSRj0A/zxTp040o+i1CrVlXm/N6FzQ7NtQ1a3gAyitvc46KOf14H416ZgYx1+tZPh/Q10e1JfDXEn32H6AewrXIrycVWVWemyPfwOHdCn7273Ob8cOtn4WumjUI0u2PK8dSM/pmvJa9a8eQNN4TuSOfKZZPwDc/oa8lrvy+3s36nFmF/ar0OisvBd1qOnQXltd2xWZNwR8qR14/AjFZ+r6BfaH5TXaxbZCQhR9wyOf6iuy8GXKyeHI1YwBoZHTDrknkN/jTvGVmtx4dkdQC1u6yArEV4B2nn6YNSsTUVXlltexTw0HS5472OAe+ncYMhJJfceu7d1z7cVBXoHhrSNK1Pw7bSXNlA8gDIz7cNkHHUHrjFcLe2xsr+4tmzuikZDn2PFdNKrGTcErNHLVpSjFSbumdj8Mbhl1G9ts/K8Qkx7g4/rXpFea/DCBm1W9nwdiQhM+5bP8A7LXpVeVjbe2dj18Ff2KuFFFHSuU6woJxSEgUnX60AIeTS4PX/JpQvc0tAAOlFJjuOtKD+dABRRRQAUUUUAFFFFABRRRQAUUUUAJyePzpaKKACiiigAo60UUAJyOvT1paKTBHT8qAFooBzRQAUUUUAFRNI0TZfHlnuP4fr7e9S0HHfv2oAYSDjvUVxcQ2sLS3EqxRqMl3IAFU9Tv4dDsJLuZv3Cfw98noB9T2rynVden1++EmoySJbgnZHGciP3x3I/M+1dFDDOrrskcuIxKopLds727+Imj2zFYTPckd404/M1DD8TNNd8S2t1GPXCn+Rrze4t3t5Nj4ORuVlOQw9R7H/PNR8nAAJJOABzmvRWBpW6nnPHVb9Ee26Zr2nawhaxuklIHKdGH1B5rRrwshtNkjaOZ0vUbcWjOPK9s9z69h05NejeEfFB1+I2l6wW7iXLAcCZfX29wK4q+EdNc0XdHbh8Yqj5JKzMjxNp32PVXljH7icllYDgHuPz5/Gq1jrl/p8flW1wVTsrAMB9M16HqGnwajaNbTplCOMdVPYiuC1Tw5eaY7HY00A6SIM4+o7H9K6MPXhUioVOh5+Lw1SjN1KV7Pt0JP+Es1f/n5X/v2tJ/wlmr97hf+/a1j59aUckAck9AOc11ewpfyo4frNf8AmZLdXc99OZrmVpJD3Pb/AAFdD4L0wyXL38i/u4wUjz3Y9T+A4/Gq2j+Frm+ZZLpWht+vI+ZvoO31Nd1bwR20CQwqEjQYVR2rjxWIio+zgehgcJOU1VqdNiaiiivNPcK91ZQXsJjuYUkQ9mGawLvwZY7HeGSaLAzgEEfrXS57Co7ni2k+laQqTh8LsZVKFOp8STOfh8D2SEGSeeQemQM/lW3Zaba6fGUtYUjB6kDk/U96tdKOtEqs5/ExU8PSpu8VYWiiiszYhuYI7u2lglXdHIpVge4PBrxLWdKn0XU5rOYH5D8jEffTsR/nrXuVZGv+HbXX7byrgbJFyY5VHzIf6j2rqwuI9jLXZnHi8P7aN1ujzDQvEN9pKm0slhJuJV+aQZ2k/L+uan8R6zqv9o3ljNfO8KuV2qAodT6468YqPVfCGq6XIwNu1xGv/LWAbh+I6g1ilGQ7WR1YdiMV6kY05y542Z5UpVYR5JXRp6brt3YWU1rHczRRMrGMRYBEhxyT1xgH86zpJJbiYu7PLLIeWJ3Mx/qTVuw0TUtTcLZ2U0mTjcV2qPxPFeg+F/A8WkSrd3zLPdj7oH3Ivp6n3qalanRu1a77FUqNWtZa2Rf8G6L/AGNoipJj7RMfMlx/Cey/gOPrmugzUUkXO+M7W7+h+tc1rvitrVmtrIDzxw7nkIfQepryFGdeemrZ68508NTV3ojppbiKBd00iIvqzAVVGs6c52re25I/6aCvNJ55biTfPK0rerHNMQlSCOD2rujl+mr1PMlmzvpHQ9XWRJVDRMHU9CrZBqQV5Xb391aSiW3neNh/dPB/Dpiu18P+JE1T9xcAR3QHQdHHt/hXNWwkqa5t0deGzCFZ8rVmdDRRRXKegFBGaKKAEyR1/OlopOR7igBaKKKACiiigAoopM9hQApP50c0AYooAKKKKACiiigAooooAKKKKAAjuOtAPbvRQRmgAoo6dTRn05oACcUmOp70oHfvRQB5l8SNTafVYbBT+7gTew9WPT8h/OuPjjeaRI41Z5HIVVUZJJrZ8ZknxdqG7rvUD6bRVbw5/wAjHYf9df6GveopU6Kt2ufPVm513fvYmi0m8UG1u44xGDwfPj3RN6gbunqvf604aRc2KkwtbyXLcCRbiPEY9ufvH17D36YeB6D8qML6D8qvkk+pnzxXQs3djcWJQXMZTzF3IwIYMPYjg0um38ml6lb3kRw8LhvqO4/EZFWrr/kXNM/67T49vu1mHoaa9+DUvNCfuSTXkz3yGRZoUkQ5RwGU+oPNSYrN8PFj4e08t977PHn/AL5FaXrXzzVmz6SLvFMqy6dZ3BLS2sLk92QE0sNjbW3MNvEn+6gFWOlHWi8rbi5I3vYhg+Vmi/unK/Q/4dKnqG4GzbMOqHn/AHe/+P4VNkHoRSLCk68D8TRyeP1paADpUN1/x7v+H86mqK5/1J9yP50AS0UUUAFFFFABTJX8uMtjOOg9afUP+tn/ANiM/m3/ANb+tADoo/LTBOWJyx9TSmNWOSqkjocU+igBMdjS9KKTp9KAMnxJqZ03SXdDiVzsT2J7/gMmvOeSe5JP1zXV+O5D5lnH/Dhm/kK5a3/4+Yc/89F/nXr4OCjS5luz53MajnX5HsrI6HS/Cc7OX1G3JjK5VUkAYH3rT/4ROx/59bn/AL/j/GtyeWVZUSIoMqzEspPTHp9aZ9on/vr/AN+H/wAa4ZYirJ3vY9OGEowVrXOW1PwnL8h0+BgBneJZQc+mP1rnFaW0uAykxzRN+KkV6dDLKZ9kpUqU3AhSvfHevONW/wCQvef9dm/nXZhK0ql4S1PPx9CFJKcNHc9E0m9OoWEV1kAOv3R2Pf8AWr/Sua8EOW0iRD0SYgfTANdLXnVock3Hsz2cPN1KUZPqgooorM2CiiigBMY5H5UoOaKCPzoAKKMjuRmkxnr0oAOT06UvSiigAooooAKKKKACiiigAooooAKKKKACgnFBOKTGeT+VAAcmgUtBH50AFFJnsetLQB5d8RdOa31xLwA+XcoATjoy8fyxWJ4aG7xLp6+swH6GvWNd0eDXNMktJvlJ5jcDlGHQ/wCe1eST2t94Z1iMyxhJ4HDoxBKvjuPWvWwtZVKTp9UjxsVRdOqqnRsvp4L1SS7mtIHs5ZoPvqs43AHoSO2aLnwTq9nA090LaGJBlnecAD8avQ+P5ILqW6j0mzW4mAEkgYgtjpmnXXxDmvrZ7e60q0lhcfMjsxB/Sq5sTporEcuFs9Xczte0ybSdE0qCdo2d2mlzG2Rg7cc9/X8ax7S0kv72G0iGXmcIPbPX8uv4Vf1vXrjX5rYNBHCkC7IooQT1/wD1AYrs/A/hdtMf7dqCbLt1xFGR/q1PX/gR9OwqpVXRpXnu7ijR9tV9zZW1Oytolt7eOFPuRqEH0AxUtFFeLue4tNAoopM9h/8AqoGBwcj1FVrdSgMRxmM8H1Xt/h+FWelQzfu3SUdB8rfQ/wD16AJ80U3p0/KjINADqiuP9WPdlH60+o7jonvItAE1FNozQA6ikooAbLIY0JHLHhR6miKMRoFznHU+tRp+9mL/AMKfKv17n+lT0AFFFFABSHkcUdfp/OloA5LxxbE21tcAcIxRj6Z//VXG16rqFlFqNlLbyj5XGMjt715le2c2nXb29wuGU8EdGHqPavVwNVOHs3ujwMzoSjP2i2f5nSeF9Ru727mjuZmlWOE7dwB7jPbn9a3tg/uj/vj/AOwrj/DN/bafeTvdy+WjxbQ20nnPtXRx6/oq58y6D+n7phj9KwxFJ+0fKnbyR04SvF0kpyV/NlPxPf3WnizNrMYi6MGIUc8j2/wrkCSSSSSScknnNb3irUrPUGtRZSb1jDbuCMZx6/jWfpGlSateiFARGDmV/wC6PT6muvDpU6XNJWODFc1avywd107HYeDrcw6GrsMGZy/4dP6Vv1HDEsMKRoAqIAAB2FPryJy5pOXc+gowVOCj2FoooqTUKKKKACgnFBP50Adz1oAjMZ56cnNSDoB6UUY7jrQAUUA5+tFABRRRQAUUZ7UUAFBIAJPQUUUAAIPIOR7UVEbaPOVBQ+qnFJtmTo4cejDB/MUATUE4qubkgfOjJ74yP0qZJFk5VgcehoAUDuaWiigAooqjqepwaVameduOiqOrH0FNJt2RMpKKbb0Lpx3qtJfW0LbZLmFT6M4BrgNS8Q32pOQZGihPSNGx+Z71lYBJ4ye+Bmu+GAk1eTseVUzVJ2hG56xFcQzDMUqSD/ZYGql9p1rrCtDewJNCvGGHO71B7fhXmcbtC4aFmRlOcqcEflXR6L4ultnWDUCZIScebj5l+vqP1+tTUwc4Lmg7lUsyhUfLUVri3fwxtJHLWl7NCD/C6hwP5GoYvheN48/U2K9wkOM/ma7yN1lQOhDKwyCD1p9YrFVkrXOv6pRbvYw9G8J6XorCS3g3zgY82U7m/D0/DFbMkSyLgj8R2p9FYSk5O7dzojCMFaKsQpIY3Ecp5P3W/vf/AF6mpGVXBVgCD1BqDe0JCuSY+znt7H/GkUT57D/9VHSk6UZoAM0hw4IIyCORRQATQBFATtKMcsh2k+vp+YqQ/XmmtEfODgjkYYHv6f596f5Z9RQAm/setRTH/Vf9dBUpiJ7io3hZinzDCtnNAEmaXNJ5beopfLPqKACo5ZGACr99jtX29/wqTyz6imCM+cXJBwMKPT/P9KAHxhY0Cr0UYFOzTaQv6UAPzR169PSmg5xnmnUALRTJJFjGWOPSo9jTcyZVP7mev1/woAGlaQ7YcY7uRwPp61Uv9GtdSt/KuELMOQ+fmB+v9OlaIACgAYApaabi7omUYzTTV0cHeeDL6Ek2rRzpngE7W/wqiPDWrE4+xt9Sy/416TSEdx1rqjjqiVtzz5ZXRburo4iz8FXUnzXkiRqP4E5J/HoP1rrdPs7aztEjtUCJ19yff1NWhgfWq7TR2jv5sioh+YFmwB6/4/jWVStUq/Ezpo4alQXur5lqk/Ks/wDt3Tc4+3W+f+ugq3DPFOu6GRZF9VYEVk4tbo2VSMnZNE1FFFIsKCfzoJ7d6AMfWgAA/OiiigAooooACM0mex/OlooAKKTkfT+VLQAEZpOnXp60tFABRRjH0pD0x60ALTCcnp/9aj/PWlAPegAAJpHhjfkqM+o60+igCHypF+5KcejjdR5kq/fiz7oc1NRQBEJ42OAwB9Dwa868Q6mdT1WRgT5MZKRj+v4mu+1NhHptzJgEpEzDI9q8tHQV6GApptyfQ8fNarSUFs9y5awwxQG6ulLpu2xRA48wjrk9lHH1zintrd6PlhkWCMdEgQKB/U/jUV8dqWa9FFupA+pJP61WrvjBT96Wp5MpuHuxdv1L41Zrj5NRRbmM8FtoEi+4Yd/Y1WvLUW0wCP5kbrvjkA+8p/qORj1FV6tyZOk27HnbK6r9MKf5k/nRyqElbRMOZzi+bVrqdL4L1RnWTT5TkoN0fPbuPw/rXX15r4bkMXiC0I/iYqfxBr0gV5WMpqFTTqe9ltV1KOvTQdRRTc56dK5T0Bc56fnSEDBGBjHQ0UlAEPzW57tF+ZX/ABH8ql3grkHIPII70E1WcNCS0Yyh5KDt9P8ACgCwvJrj/FnjK40u/GnaXGHuQAXYru2k9AB3NddbusillIIPcV5pef8AJU1z/wA/cf8A6CK6cLCMpNyV0lc5cVOUYpRdm3a43/hL/Ff9yT/wEP8AhR/wl/iv+5J/4CH/AAr1Pj2o/AVX1iH/AD7RH1ap/wA/GeWf8Jf4r/uSf+Ah/wAKtW/ijX3sLqSeaWO5jx5MQsSRJnrzjivSce1GKUsRBrSCQ1hprebPLP8AhL/FfaOT/wABD/hR/wAJf4r/ALkn/gIf8K9T/AUEelP6xD/n2hfVan/Pxnln/CX+K/7j/wDgIf8ACrml+PdSttQii1uIeTIQNxiMbLnjPuK9H7V5z8R4wdSt38vzGEH3Se249Perp1KdaXI4JX6ozqU6lGPOpt+p6C5BUMBx7GkGTx+tNiB+xxntsXr9KN4AJJAA5JPauF6HoLVEowOlNeXDbEG5+47D61EHaf7hKR/3u5+n+NTIixjaowP50DEjiwd7ne/949vp6VNTaWgBaKKKACg0Vm69qP8AZulSzr9/G1Pqen+P4U4xcmkupM5qEXJ9DK8QeJ/sDm1s9rXAHzOeRH/ia4ye5mu5DJcStK5PVjn/APVTCWYlmJZmOSTzmtSytbFdIN7exTS5n8oLG2McZr2YU4YeK0u/xPmqtepipvWyWvlYyamtria0kElvK8TDupxWj5+hj/lyvD/21FOaDTLvTbye0huIpLdVbLvkHJxVuotpRdmQqTTvGSutdL9DoPD/AInGoMLW8wtxj5WHAf8AwNdJn868kDsrhkJV1OQw4x6V6RouqJf6VFcSOquflcZ/iHX/AB/GvPxeHVN80dmetl+LdVOE91+JqgYoqHzwfuRu3uBj+dGZ26KifU5P6VxHqE1IWCjJIA9Sai8pj9+Zvoo20q28Q52An1bn+dAEoIIBHQ0UUUAFFFFABRRRQAUUUhPpQAjHHf60np+RFHJ/+vTgMUAIADz706k5H0paACiiigAooooAgu4ftFpND/fQr+YxXlJRoyUYYZTgg9sV64a4TxZozWt417Ch8iY5fH8Lf4Hr9a7sDUUZOL6nlZpRc4qcem5oaXaQXGlxiWNCWscEkehNcaPuj6Vah1S7t4HhjnIjdDHtPOFPYelVK76NKVOTbd03oeViK0asYqKs0tTT8PQx3GvWqSgMu4nB55AJFaHieKOKCARqqZnmLYGOcgfyxWDBPJazpNE22RDlT1qS6vri9cG4kZ/mJC4wAT1wPelKlJ1VO+iCFaKounbVsveGIvM12FznZEC7EDpxj+ZFeiLIsi5Vlb6HNYfhbR2060Ms64uJ+SD/AAr2H1rcaCN+Sgz6jrXl4uqqlRtbI93AUXSopPd6jhS1EY5F+5Kfo4zTfNkTiSI/VDnNc52kxpppqzRucBxu/ung0pNADSajJpSajc0AS2qKHkIGCcE4715tef8AJVE/6+4//QRXpFmcmT8K83vP+SqJ/wBfcf8A6CK68JvP0Zx4z7Hqj1KiiiuQ7AooqJp4kkWNpEV3+6pbBP09aNxNpEtIxwKQuqgknAA5z2puQ4BBBBHBHOaBi15v8TJWGq2iqSP3G7IOP4iK9Jx6/lXmnxP/AOQzaf8AXuf/AEI11YP+KvmcmN/hP5HoQbZp0ZwThF4AqJEaQhpsHHIQcgf4mpgf+Jcn+4tRIa5nudUdkWAaeKgBqUGkMeKdTBThQA6imPKkf3nVfqab9oU/cV3+g/xoAkrlfHUhFraRjo0hJ/Af/Xrpd0zdEVf945/lXPeNLV5NMjnLbvKk5AGMA8fzxW+GaVWNzlxqboSSOJrU/wCZRH/X7/7JWXWmSB4Q/wC33/2SvXrfZ9UfOUPtehmDGRnpnmtTT8f2Nq+Mf6uPp/vVlZX1FammkHRdXwR/q0/9Cp1tvmvzHQ+K3k/yMqu08Cvm1u0OPlkBH4j/AOtXGfWu58FW5i0qSZhjzpDj3A4/nmsMa0qWvkdGWJ+3+R0tFFFeOfSBRRRQAUUUUAFFFFABRRRQA0k0n8/enEZNLigAAxRRRQAUmD2paKAAHP1ooIz9aTPY9aAFooooAKjkiWaNo5FV0YYIIyDUlFAmr7nH6n4KJYyadIAD/wAsn7fQ/wCP51hS6BqkThWspCT3TDfyr02oX/18X/Aq64Y2pFW3OCrltGbutPQ89tvC+qXBA+zeUP70jAV1GjeFoNOYTTHzrgdCR8q/Qevua3ep9vWndamri6lRWeiKo4ClSd92AGKWiiuY7hKQ0vrTTQAyRFIw6hl9xnFQGLH+rkZfbOR+tWDUL57flQBEXlTqquPVTg/rUL3CdGyh9HGKnJ61DJ0IpiLNgcmTHtXnN5/yVRP+vuP/ANBFeh6YiqZdqgZxnFeeXn/JVE/6+4//AEEV1YT7fozkxn2PVHqJ6UCkJrk9YvdU1C+l0+xiaCFDiSVvlyPUt2H05Nc9ODm7XsbVqqpxva7LeteKorIm3ssT3OcZ/hU/1PsKw/7Dv78i7vLkR3T8pHK2HP0/u+w/lUH2uz0YbNP23N33uXGVT12D+tUJLpppjcSSu8hGMH1+vp3r0qVFxXuaeb6ni1sSpv8AeO/knsbc+r3R0+503UUkEjKFR2+8ehwfX610XhhzJoNuxHXdj2+Y1x8GrJcQi21iM3EQ+7MP9ZH+Pcex/WrlrLf6AVmspPt2nOf4Of0/hP6VnWo+7y2s738mbUMTaandtWt5o7uvM/if/wAhm0/69z/6Ea9IhcyRK5UqWAO09R7V5v8AE/8A5Ddp/wBe5/8AQjWGD/io7sY70b+h6C3/ACDEPfYtVkf14qeUE6SoyR8i8j8KppDGfvKW/wB45rme51LZFkXEYON4J9Bz/KpBKx+7E31Y7ajj+QY4A9hjFTCkUKPOfqyJ9Bu/nT/IB++7t7E4/lSin0ACRRx/dRR7gU+kpaACobq3ju7aSGVcpIpVhU1IfQdaE7aoTSaszy3UtOm0y9aCUEjqj9mX1rR0TW7TT7F7e8tmnBk3jChu2O/0rtb7TLfUoPJuUDr1B7g+oPauTvvBV1ExNnMkydlf5WH9D+lenDEU6seWrozxKmDq0KjnRV0Da/prSFlt5VXPCiCLjp/gfzpNT8Q2Fzpk1tZ2bRPKACdqr0OexqgfDOqqwBtDycA71/xrQsfBd1K4N7KkKd1T5mP9B+tU1h42d9vMzTxc7xUbX8jF0vTJtVu1giBA/jfHCj1r0y2t0tLaOGFcRxqFUegqKw063023ENrGEXqT3Y+pPerlcWJxDrS8keng8IsPG71b3AHNFGO4oB/Ouc7QooooAKKKKACiiigBu/rTqZz0p9ABRRRQAUUUUAFFFFABRRRQAnI69KWikwR0/KgAPSmSSJEjPIwVFGWYngCn15t4512fUtTGi2G5kVgsgTrK/wDd+g/nWlKk6krGNaqqUb9ehd1r4jpE7Q6PCJSODPJ938B3+pxXMTeM9dnkDm/ZMdBGij+ldLpfw0jMQfVbl95GfLhIAX23Hr+GKg8Q+B9N0yza4g1H7OR0W5YEMfQEc5/OvQpywsWoJXfc86pHFSTm3ZdjJtPHuuWrZedLlB1WWMfzGK7bw941s9aIgkH2a7PSNzkP/unv9OteW/Ybzy/MNpceX13eU2KgBIYMpIZTkMDjB/xrephaVRe7o/Ixp4qrTa5tV5nv4NFcx4K8RNrenGO5bN3bYVz/AHx2b/PcV09eNODhJxe6Pap1FUipLqJTadTaksaaiNSmoJJET7zqPqcUARyfr61A57HrT3mQ/d3N/uqTUMjOekTf8CIFMRc03rJ+Fed3n/JU0/6+0/8AQRXoGll8y7woHGMHNef3n/JVE/6+4/8A0EV1YT7Xozkxm0PVHqVc540Zk0VdrEbpVVsHqOeK6InFc542/wCQNGT/AM9l/kayw/8AFj6l4v8AgS9DhfrS0UV7x8oNrpfBDN/ak6AkIYtxGe+Rz9a5yui8Ef8AIXm/64/1Fc+K/hM68D/Hid1XmfxP/wCQ3af9e5/9CNemV5n8T/8AkN2n/Xuf/QjXnYL+Kvme9jf4L+R6BJ/yC1/3F/pVRKtSkDSUyQPkXr+FVU7Vyvc6VsidO1SjI6dPSok7VMKQyRDmpBUYHcdaeD270DHClpBS+w/OgAJ7D8aUDFAGKKACkoJwKw7/AMWafZuyK5nccYj5H59KqEJTdoq5nUqQpq8nY15zwn++tTVx0njlXZcWLbVOeZP/AK1X7LxlYXJCz77dj3cZX8x/WtZYerFXaMY42hJ2UkdFRTEkSRA6MrKRwQc5p9YHVuFBGaKKAEzjr+dLRScj3FAC0UUE4oAKTryfwFA55P5UtABRRRQAUUUUAFFFFABRRRQAUUUUAFFFNZ1XqwX3JoAr31z9ltJ5uMRxs/5DNec/Dq3F74huLuf5pYoy4J/vMeT/AD/Ou+1ZkudHvIY23O8Dqu0E/wAJrzPwJqD2XiWCMAlLlTEw9O4P5j9a7MPG9KdtzhxDSrQvserXd1HZWc1zMcRxIXY+wGaw9C0037JrWqp5l5MN0KNytvGfuqo9cck9eateLY3m8K6isQJbyScD0HJ/QGtDT5Y5rC3liOY3jVlx6YrmTtC/W50PWdnsWsCuI8ceFYJrKXU7KJY7iEbpAgwJF759x1z7V29UtXljg0e8klIEawuWz/umnSnKE04hWpxnBqR5b4GvTZ+KLcAnZOrRMB9Mj9QK9Z81z92FvqxArx/wbC0virTwAflYufYBTXsvaurHpKordjmy9v2bT7kX789o1/M0nlOfvTN/wFQKmpDXCd5XNtGfvbm/3mJpvlIv3UUfRcVYNREUARNUDirDionFMRJp/Bl/CvPbsA/FFeDn7WnP/ARXodgDmTPtxXnV5/yVNf8Ar7j/APQRXVhPtejOTGfY9UepVj+I9Ml1XTRDbsokVww3dDj/APXWvnsaWuaMnGSkt0dM4KpFxezPPf8AhD9W/uQ/9/KP+EP1b+5D/wB/K9BxRiur69V8jh/suh5nn3/CH6t/ch/7+VteGdAu9Lu5Z7ooNybFVTnvn+ldPS1FTF1JxcXsXSy+lSkpxvdCV5n8T/8AkN2n/Xuf/QjXpprzL4n/APIbtP8Ar3P/AKEaeD/jL5l43+C/kegSAPpaggEFF4P4VSjt1HK7k/3Tirzf8gxP9xaroK5nudK2QiJKOjq3swx/KphIw+/E/wBVO6lQVIBSKCOaMnAcZ9Dwf1qVyUxjue9IQrjaQG9iM00WyD7pZD/sn+lAEiMSSCc4HUU8CotsyfddX9mGP5UvnMPvxMPdfmFAEppM1Gs8bnAcZ9KzvEd61jos0iHEjDy1Pue/4DJqoxcmkupFSahFyfQ5rxL4ie7leztHK26Ha7KeXPf8B+tYEEEtzKsUEZd26KoqKtrw4xWe+YHDLaOQR2r2uVUKT5UfMucsTW997kX/AAjepjgwxgjrmVf8ap3llcafKI7mJo2IyMngj2I61X6gE9SOa2dQJbwxpRYknfIAScnGapynFq7TT0J5acoy5U00M0LXpdInCMWe1Y/On933Hv7d69EjkWaNXQhlYZBHevJq7jwXemfTXt2OTA3y/wC6ef55rkxtCKXtI/M9DLMTK/spP0OlooorzD2woopOv0/nQAmTxSjnBNLikzj6UALRRRQAUUUUAFFFFABRRRQAUUUUAFIRkEZIz3FLSdenT1oAh+zg8MzsPdj/AEp6wRJ92NB+FSUUAIRxXjviPTJ/DniKQ27NEjMZbeRTjAPUD3GSK9jrL1zQ7XXbE290pBB3RyDqjeo/w71vh63spXez3ObFUPaw03Wx5VD4p1uEnGoSyBhgrLhwfwNbXhLxsNKgFjqKsbZT+7kUZMfsR3H06Vjaz4X1LRZD58LSwDpPGMqR7+h+tY2VPcV6zp0asdEtex5Cq1qM9b6dz2Y+MNCEXmf2nBt9MnP5da5jxf4t0zVtBktLG4kaV3XKmNlyoOT1rgkDSOEQFnJwFUZJrr/DvgO6vpUuNVQ29sOfKP33/wDiR+v865nh6NBqUm9DpWJrV04xS1ND4baMy+bqsy4Djy4cjqO7fQ4A/A16BUcESQRJFEgREGFCjAAFSV59Wo6s3JnpUaSpQUUFNNOpKzNRpphFSGmEjp7UAQvUEj4OMbnPIUdv8KlJaXPl8L/fI/l6/WgRLGCFHXqTzmgBbBWBkMjZY44HQV5zecfFNf8Ar7j/APQRXpVvwWHqK8t8eWE1n4lmuWBEVzh45B6gAEfXj9a68HZzcW7XTRxY66gpJXs0z1nI9aN2PpXgfmyf89X/AO+jR5sn/PV/++jW/wDZz/mMP7S/unvmR60ZHqK8a04aTJol7JfXc6agufIRXODxx9cng57VZ0hNEl8PXkmo3ciagM+WBKwI4+XAzzk+v6Vi8Ja+r0dtjVY29tOl9z1zNGR614zpw0qTQ7yS/u501Bf9Siu2Dxxj1ycg56Vk+bJ/z1f/AL6NXHAuTavt5ESzDlSdt/M983CvMvid/wAhm0/69/8A2Y1yHmyf89X/AO+jUtlaXGqXsNrCGklkbaATnA7n2A61vSwnsZc7lojGrjPbR5FHc9sY7dMQ7S2EXgfhUUZVwGUgg9xVpkEdqsec4AUe+KrGIgl4ztc9QejfX/GvKe5662JQKkHoOv8AKoo5A5K4KyLyVPb/ABFToAKQxQMU4UgpwoAKMd+9LRQAwhW4dQfYiub8aRLHpUWwEL5wyAeOhrpjzWX4hsTqGjTxIMyKN6e5HP69PxrWjJRqJvuc+Kg50ZRW9jzetrwrCZ7y7iUgF7Z1B9M4FYddB4OK/wBrTAkcwEAEdeRXsYh/um0fOYVfvoplT/hGtQ4AWBgQSCJl5x/QVc1u0ey8PaXBIyswZzlWyOeevfrVmAQ+TbYW2/1E+MWbgd8/h7d6h8QFf7D0hV2fdJAVCg6DseRXNGpKc4p9zslRhTpzcd3/AMA52uq8C5+0Xn93av55NcrXb+D7Y2mmNPIj5uG3AgZ+UcD+prbGySpW7mOXQcq6fbU6aiolnjfhXBPpnmpME9eleKfSh1+n86WiigAooooATBHTp6UuQaKTHcdaAFooB/OigBMdxSg5ooI/OgAopAex60tABRRSdfp/OgA6/T+dLRRQAUUUUAFFFFABgHtVCbRNNuH3TWFq7erRKTV+ihNrZkuKe6KS6da2ke60tYYmX5h5cYXP5VaDgoGHKkcGqmo6lDplq09wTgcADqx9B71wOo67d6hlN7RW/O2JDgfie9dFKhOs/LucuIxdPDK3XsegS6rYwHEt3AjehkFOh1G0uTiC5hkPorg15XjHQUDHUcEdCOMV1/2eraM8/wDtaV/h0PXQc0H7prgdF8SXdo4indriHptY5cDuQe/0NdnHeJdRK9qwkRhkMDwP/r+1cNahKk7M9PD4mFdXjv2JpJVTG7v0A5J+lRiJpeZeE7IDn8/WpI4QvzE7nPViP84qSsjpGkUwipKQigCHlSCOoomit72ExXUUciHqsihgfzqQpUb4QFjwAMn2pp21Qmr6Mo/8I9oWSP7OssgdPLWl/wCEd0P/AKB1l/37WrEUZwXYYZzuI9PQfgKcUqueXd/eT7OHZfcVP+Ed0L/oHWX/AH7Wk/4R/Qt2P7PstwH/ADzWre2own+kn/cH86OeXd/eHs4dkQ/8I/offTrLP/XNaP8AhHtC/wCgdZf9+1q15YPagJjr+dHPLu/vD2cOy+4qnw9oQxnTrIZOBmJatWlhYaeD9jtoIc9fLQDP5UPEJEK9M9D6U6ImRASMMDhh6GlzN6NjUIrVJD2YyH2HQUgB6D8/SlAzwPxNSAVJQwxLIozkEdGHUUgkaMhZscnhxwD9fQ1NS4BUggEHgg96AAUtQAPB93Lx/wB3uv09RU6MsihlIIPQigBaKKKACg8imSTRxjLuq/7xxQk0coyjq3+6c0WYrrY4vxL4bkila9sULxMcyRKOVPqPb27VzcM0kEiywyFHX7rKa9YlcRxlsZx29ax7vwxYXq75Ytkx5Z4zgk/yrvoYzlXJUV0eVicucpe0pOzOQ/4STVv+fxv++F/wqjc3k97L5lzK0j44Ldh9O1dd/wAINbE8Xk4HoQP8Ku2nhLTbRw7RtO4PBlOQPw6Vt9aoR1itTm+o4qeknocxoPh+XVJlmmUpaKcknq/sPb3rv0UIgVQAq8ADtSgBQFUAD0ApwGee1cFetKq7vY9XDYaOHjZavqxpjWTqAfqKeiLGgVRgDtS9KKxOoKKKKACiiigAooooACM0UUUAFFFFAARmkzS5z06Um0UAHXHp6UtAI6elFABRRRQAUUUUAFFFFABQelFRzsY4JGHVVJoE3ZXPPPE2ptf6q6q37mAlEA9e5/Pj8Kili0+0EKTRXUjvEshKyKB8wz0x2rOJL5Y9W5J9auar/r7f/r2i/wDQa9xQUVGGyPlpVXJyqPV3FMul/wDPtef9/l/wp8f9mSEgW92DjPMy8/pVBELgkFQBxknFTHYiHkqFPHHIb+tW4LZN/eTGberS+4uvFaHT0urVJIwJQjGRg3UE+nUYx+Nafg7Uyt49k/CSDegz0YdfwPX8KxxIX0KXheblQcDH8J/WmaNIY9asnU8+co49+D/OsZ0+enJM3p1nTqwa07nqNJS0V4x9KJSU6koAbioJR5jrF2PzN9P/AK5/lVg4AJJwAKihBwZCPmc559O3+fegBSKTFSYpMUARbKjCf6Sf+uY/nVnAqLH+lH/rmP50AGynYp+KPYfj7UARYx9KaQY5g3RZDtb2Pb8+n5VPtFI8YdCjZwR1oAUDFLTIGLJhvvqdrfX/ADzUuKAEpaKWgAqF4iHLxEKx6js3/wBf3qaigCpNew2tvJNcOIUiXLlz90f1rznX/H95eyNFphNrbjjzMfvH/wDiR9OfepPiJrbXOoLpkLfuYMNJj+Jz0H0Ax+J9qxPDGgnxBqhtzIY4o13yMBzjpgfjXpYbDwjD2tU8rEYmc6nsqZlSyyXDl55Hkc8lnYsT+dEUslu4eCR43HIZGKkflXaeJ/Atvpelve6fLLiIAyJIQcjuQfUVxPFd1KpCrG8djhq050pWlv6nVaH47vLOWOPVGN1bA/eP+sX3/wBr6H869OtLuG9to7i3dZIpBuVlPBFeD12Xw71p7bUTpkjEwTgtHz91x1/Aj9RXHi8LHl54Lbc7MJi5KXJN77HphYDimk5zmkzn/PWnBa8s9cAD36U6gY/KigAooooAKKKKACiiigAooooAKKKKACk6/T+dHJ+n86WgAooooACM0mSOv50tFABRScj6UvWgAooooAKKKKACmuoZGU9CMU6mSSrGPmPJ6AdTQB5aNPuG1B7KKIvKrlNo7c9fp3rrIYYo4YYp7GK4aNBGZjF97A9+3B59qTXILvTriTVbIbWdQsyKAeOzH+XFY8vifUU4Fw27APKrx+leneddJxseEo08LJqd7+mhslrMLhtLtgepUoBjp7e+PwoDWkhONLt3bPOI8+o/p+orl5dVuZpDJIYXc/eJhQk/pToNavbbJgkSInrsiUZ/Sq+qztvr6kfXIX209EbmqWTX9gYrK1SBkbzTGse3zeOx9QD0rH8PWpudetlwfkfzHyOgXn+eBS/8JLqv/P43/fC/4V1fhrS5rZJb695u7k5bIwVHp9e9TOUqFNxlbXbuVTjDE1oygnpvpobwIP1paTH50hcLncQAO5rzD3h1FVG1SyQ4a7twfQyCp454pk3RyKy+qnIp8r7EqcW7XGTfvGWL+9y30H+PSpsVFB8+6U9XPH07f4/jU1IoSkxTqKAG4qPH+lH/AK5j+dTVB1uyB/zzHP40ASc9B+J9KXGKXFLQAlGKWigCu/7mYP8AwN8rf0P9KnodQ6FT0PBqKFiVIP314b39/wAetAE1FAOaKACg9KKD0oA8J1GV73VrqUgs8s7YA5Jy3A/kK9A8HeEr7R7kX1zcJG0ibWgUZ4PPJ7EHHTNcRfCTRvE05CgvbXRkUN3AbcPwIxXpmleM9I1KJS1ylvKfvRzNtIP1PBr1cVKfs4qC0aPHwkYe0bm9U9C54h0qXWtIks4rn7P5hG5tm7I9PoayfB3h+PSLe5juUhluxKQ0i4bK9seg68etX9S1mwb7PCt/bhJZgkmyUZIweODwCcDPoa10jSKMJGiogHAUV5/POMOXZM9HkhOfNu0eUeNbK3i8SzCyRUQIrSgDADHrj8MHis+xlNhfxzLEF8uVNrZ+98w//XXqPia20+XRrhtRVBGiHDngg+x9c15TpiS6lqtlahVy8y4wOgzk/gACa9LD1PaUrNaJanmYil7OreL1bPcAKWgdKK8g9oCPzpAex60tGAaACik5HXp60tABRRRQAUUUUAFFFFABRSE9h+NLQAUUUUAFFFFABRRRQAUmO4paKAAHNFBGaTPY0ALRSMyopZiAB3NQ/PP6pH+rf4UAK0pLFIgGYdT2X/6/tSpEEO4ku56sf88CngLGoVQAB0ApwGPrQA3bnrXMar4MiuXaaxkELsclGGVP+FdTRVwqSpu8WZVqEKytNHnEvhXVoiQLYSD1RxzT4PCeqzEBoVhU9S7j+leh7aNtdP16pbocX9l0b31Of0nwnb2GJZnM1wOVYjhD7D/GtqOQg7JAA/Yjo30/wqequoTxW1lLNMMpGpY/h/WuaU5VJe87s7YU4UY+6rJGfruvxaRGFAElw4+WPP6n2rh7zUL3U2LTySyj+6oO1fwFQXVzLe3L3EzFnkOST2/+sK7XwszxaHEY7Vn3FiWDKMnJ9a9HkjhoKVrs8Z1ZY2q4XaSOH+zyj/ljJj/cNSRNc2p8yHzoiOrAFa9Avbt5o/KDPbuGB3LJHnjnHJ79KqRadepcedJcXc8JBJhcx7WBHTr05o+t3XvRQPAcr92Tfn2K2g+KzPItrqG0SNwkgGAx9D6GusryLjJHocfSvQfC2qHUdLAlbdNCdjk9/Q/iKxxeGUFzw2OnAYxzfs5u76PublFFJ16dPWuE9UTk8dvWox/x9H/cH86We4itoy80iRIOrOwAH51lHxPoy3Zzqdt90DiQetUoyeyJc4rdm1RVe2vra8TdazxTL6xuG/lVipatuNNPYKKKKBiVnajqtppciyXEyqWGCg5Y+hx/nrVTxHro0qARw4NzJ90H+Ef3jXAyyyTSNLK7O7H5mY812YbCOr70tEebi8eqL5Yq7Owl8c24c+TayuB3ZgM0638c2rHFxbTRD+8MMK5K2sbm6Rmgj3KpwWJAx+dQEYJBwcHHByK7PqdF3S3PO/tDEKzez8j1Oz1C2v4fMtZVkXvg9PqO1Wa8otLyfT7gT20hRh3Hf2PqK9C0jWk1SyWSJD5w4kTP3T9fSuHEYaVHVao9TCY6Nf3XozlPiJ4fZyurWy5wAlwo9B0b8Oh/CuB4Ne8CAHmTDswwcjjHpj0ride+HayyNcaM6xMTk27/AHf+Ant9Dx9K6MJi1FKE+mzMsXg3JucPmjzvAHYVo2uvarZRiO31G5jQcBQ+QB+PSpbnwxrNq5E2m3Bx3Rd4/MUlt4Z1m6cLHplyM93XYPzNd8p0pL3mmjgjCrF2SaZUu9Qu78hry6mnK8jzHJArs/h7oZSX+1rtSgYFLbcOuerf0H41NoPw6EMiT6y6yEHIt0Py/wDAj3+g/Wu6EaCPy9o2AYCgcAV5+JxUeX2dPY9DC4WSl7Srv0JBRUHzwf3nj/Vf8amVg6hlIIPQivOPTFooooAKTkdOnpS0UAAOaKCO460A/nQAUUUUAFJk9B+JozngfnSjigAAxRRRQAUUUUAFFFFABRRRQAUUUUAFRSShG2AF3PRR/nimeY83EXCf89Ov5ev1qRI1iBwDk9SepoAYsR3B5TuYdB2X/wCv71Nn0oIJ/GgcUAKBiiiigAooooAKKKKACsHxjKU0FwP43VT9M5/pW9WN4rtjcaBOFGWjxIB9Dz+ma0otKom+5hiU3Slbsec12em3Zs/Bsci5By+SDzgEn8zjH41xld1odot94TiiOMkvgHvyR/IkV6mMa5Yt7XPCy9NzajvZnHSajdyPvM8inOQqMVA/AV13hXUpLq3eOY5IyPxHP6g/pWFN4XvY5tirlc4BYHI/Ic/hXUaDo50y2JfO8g9eM5xk+3QDHtWWJqUnC0dzfB0q8ajcr263PPyOT65rpvA0uL+6jz8rRhvxB/8Ar1zJPzn611Pge1Je6n/hULGDjr3P9K3xTSou5zYFN4mNvM7I8/SuV8WeMU0QG1swsl6w7/diHqfU+1bet6mukaRc3rc+Unyj1boB+ZFeKTTSXM7zzOXlkYs7HuTXDhMOqrcpbI9fG4l0kox3ZJfX91qM5mvbiSdz3Y8D6DsPpUFFalj4b1K/j81YBBAOTPcHy0A9cnr+Feu3CmtdEeQlKo+rZnW9xLazCW2leGQHhkO0j8q9B8JeOWu5ksNWIErHbHP0Dn0Ydj7965W/0aytdFe6tr83kqTLGzRoVjGQTwT948dRWL/nisZ06eIi7febQqVMPJa/I9+7UE4Brn/BusNrGgxvK264hPlSn1I6H8Rj9a3LjPkSY67Tj8q8SUHGXK+h7kZqUOZHmWq3rX+q3FwSSCxVfZRwP8fxqpSDoK1fD+kx6xeSRSyOiom4FMZ647173NGlC72R8qoyrVLLdsm0C7iKSWVwgZWBKnOOvUflz+dZV3bfZbqSHO5VOVb1B5H44rtIPB1tbyb47mcNjGSFP9KSbwZazSGR7q4LHHTA9vSuJYqkpuV3ZnoSwNeVNRaV0cPWz4UvDaa1HHn93ONjD36j9ePxrP1CxNjPtEiyxsTsdfY4IPuCMU7Sif7WtNvUzL/Ouupy1KT7NHDS5qVZd0z1HNGO560g4NOrwT6wKKKKACiiigAqF4irF4iAT1U9D/gfepqKACiiigAooooAKCM0UE/nQAm4Dgnmg5PTp600xnnnqc9KeOmPSgA6UUUUAFFFFABRRRQAUUUUAFFFFABUTQ+Y/wA5yg/h/wAfWpaCcUAHAAFIB3PWgDuetLQAUEZoooATJHX86Wik5H0oAWiiigAooooAKa6B0ZWAKkYINOooA8z1zSZNJvWQgmBzmJvb0+op+m+I73S7fyIPKaMEkB16Z/pXoF5ZQX9s0NzGHQ9j/T0rjrzwdcDdJYSLLHn5Vc4b8+h/SvSpYinUjyVTw6+Dq0ZudDby3I/+E11L/nnbf98H/Gmy+MdSljZAIEyMblQ5H0561Sbw7qqnb9hlPuCP8auWng/Urgjzgluncs24/kP/AK1bOOFir6GCnjJO2pj21tLdTpBboXkc4VR+v4DrXo+maTFp+nxW+AXUZZxwSx6mm6PodtpMZES75D96Rup/wHtWpXDisT7V2jsj08Fg/YJyluzjPiPuh8PxIsjFZLhQQT6An+leZ16x8QLM3fhiV1GWt3WbA9Bwf0JP4V5PXfgGnSt5nJmCftb+RseE9o19Gd1jCQysJHTeEwhO7HfHWr97r+neYH8u41ideRLfNtiU/wCzGO31FVvD2mX26a9NtKLUWk/70jCnKEfjz6Vj2SwSXcCXkjRW5YeY6jJVauUYzqNt3suhnGcoQSStd9TbvdYu9W8M3Ju3XbHdRLGiIFVBtboK56ul8Q32hR6YthoMbENKsksvzYO0ED73U8npXNVeHtyt2sm9jOvfmSvdpbnc/DGWTztRiTG3ajc9jyK9A2Sn70gA9FX/ABrivhjZstpe3ZGFlcRqfXb1/U4/Cu7715OLadZ2PZwafsVc8t1exOn6pPbkcBtyk91PI/w/Cn6NqbaVqKXGC0Z+VwP7p/qOtdn4j0Iatbh4sLdRfcJ/iHoa4CaGSCZopkZHXqrCvQoVY16fK97WZ4mJozw1Xmjte6Z6haX9vfQiS3lSRfY9Pr6VS1nxBb6VC2GSSfHyxg/z9BXnWSOQSD7HFJ7mslgEndu67G8s1k42Ss+5Pd3b3jqWRY0QEJGo4XJyevUknOTWp4TsTda0kuP3duN7H36D/H8Ky7OyuNQuBBaxl2PX0X3J7CvRdF0qPSbJYUO5yd0j92NXiasadP2cd2Z4KhOtVVSWy1uaWBScj6fypaK8g+iCikwR0/KlBzQAUUUUAFFFFABRRRQAUUUE9h1oAQnsOtKBj60AYooAKCO/eiigAB7HrRRgGkzjr+dAC0UUUAGeeaKKTke4oAWiiigAozRnvTDz+NACkn8KUc0gBPWnUAFFFFABRRRQAUUUUAJjuKUHNFBGaACikz2NLQAUUUUAFNAHQDAFL1+n86WgAwPSjAoooAKKKKAI5YknheORQ0bqVZT3BrxrxJoEugak0LBmtpCTDJ/eX0+o6frXtPeql/p1tqdq9veQrLE3Zh09x6H3FdGGrujLye5zYnDqtHzWx5Jd+LdVvdNFi8yJbhAhEce0soGME+n0xWN/Ku41T4aTxsX0u5SRDz5c3DD/AIEOv41inwPrwkMf2EFsZyJVx/OvVpVqFvdaR5FWjXv7ybMGrel6XcavfJa2i5djksRwg/vGum074bahMwN/PFbR91Q72P8AQfrXeaPollolt5VlHtz9925Zj7msq+NhFWg7v8Dahgpyd5qyJdK06LStOhtIB+7iXaD3PqT7k5NXaKK8dtt3Z7KSSshPrVK/0uz1FALqBZMdD3H41cycZoA/Kmm07pilFSVmro5eXwPau5MVzKgznaQDipLfwPZIczTzS+2QoP5V0tFa/WatrcxzrB0E78pRhsYNOhX7LEsaoeQo+8O+fX1/CrwwQCOhpahh+QmI/wAPK/T/AOtWTbb1OiMVFWRNRRRSKCgj060UUAAPY9aKCM0mcdenrQAtFFFABRRSE9h+fpQAE9h1pQMUAYooAKKKKACiiigAooooATkdOnpS0UUAFFFFABjnNISMUjH3x60n4c+3egApQvrSgetLQAUUUUAFFFFABRRRQAUUUUAFFFFABScj6UtIeelAC0nX6fzpADxmnUAFFFFABRRRQAUUUUAFFFFABUQ/4+z/ALg/nUtRD/j7P+4P50AS0EfnRSN0oAUmmcUdcfmKUD1FAAF/KnUUUAFFFFABUM4IAkUZZOceo7/59qmooARSGAIOQehpahi/dyNF2+8v0/8A1/zqagAooooAKKKKAEwR06elLSH0pMH9eKAFPPA/OlAxRRQAUUUUAFFFFABRRRQAUUUUAFFFFABSE9hSHNIPT3oAMEkU4AClAxRQAnPb8qUHNFGO460AFFAP50UAFFFFABRRRQAUUUUAFFFJ1+n86ADr9PWloooAOtJkjr+dLRQAUUnI+npS9aACiiigAooooAKKKKACov8Al6P+4P5mpai2HzC+ckjbQBITim/zo55+lOAoAAMfWlIPaiigAB/P0ooIzSZx1/OgBaKKKACiiigCKdTtDoMshyB6+1SIwdAynIPIpahjBjlaP+E/Mvt6j/PrQBNRRRQAUhPYdaCew/P0pQMUAAGKKKKAE5H0/lS0UmCOn5UALRQDmigAooooAKKKKACiiigAoozij8KAEIJPtS0UUAFFFFABRRRQAEZpM46/nS0UAFFJyPp/Kl60AFFFFABRRSdfp/OgA6/T+dLRRQAUUUUAFFFFABSY7ilooAAfzooIzSZ7H86AFooooAKKKCcUAB/nTdppQO560tAAAB0ooooAKKKKACiiigBOR7ilopMdx/8AroAWigHNFABRRRQAUmc8D86OTwPzpQMUAAGKKKKACiiigAooooACPz9aTPY9aWjrQAUUnI69PWloAKKKKACmlvT86Qn/AA+lAGf60AOHOM9RS0dKKACiiigAooooAKKKKACiiigApMdxS0UAANFMYnIAJxjsKVckc9j3oAXr16elLRRQAUUUUAFFFFABRRRQAUUUUAFFFFACcj3FLQelN7nn9aAHE/nSAd+9LiigAooooAKKKKACiiigAooooAKKKKAAjP1pAexpabISMYz17UAOpOvTp601CSSDkgdzT6ACiiigAooooAKKKKACiiigAooooAKTBHTp6UtIxI6UAKen+FM/Oj656cjrSgA5oAAD3p1FFABRRRQAUUtFACUUtFACUUtFACUUtFACUnX6etOooASg57UtFACA5opaKAEopaKAEopaKAEopaKAEopaKAEoJxS0UANA7nrS0tFADckdenrS0tFACUUtFACUUtFACUUtFACUUtFACUUtFADSew/GlAxQKWgBDntQDn60tFACUUtFACUUtFACUUtFACUUtFACUUtFADScU05P/wBepKKAGgY5o6fSnUUAJRS0UAJRS0UAf//Z;" vertex="1" parent="1">
          <mxGeometry x="667" y="191" width="347" height="347" as="geometry" />
        </mxCell>
      </root>
    </mxGraphModel>
  </diagram>
</mxfile>
